<mxfile host="app.diagrams.net" modified="2022-03-28T12:11:24.303Z" agent="5.0 (Windows)" etag="VMYPpvfSs36iuF3Ns2gx" version="17.2.4" type="github">
  <diagram id="9o1-C8mOjEJ29pecH428" name="Page-1">
    <mxGraphModel dx="1393" dy="823" grid="1" gridSize="10" guides="1" tooltips="1" connect="1" arrows="1" fold="1" page="1" pageScale="1" pageWidth="850" pageHeight="1100" math="0" shadow="0">
      <root>
        <mxCell id="0" />
        <mxCell id="1" parent="0" />
        <mxCell id="mHmDhstMQcEe2w9VZF_P-15" value="" style="edgeStyle=orthogonalEdgeStyle;rounded=0;orthogonalLoop=1;jettySize=auto;html=1;" edge="1" parent="1" source="mHmDhstMQcEe2w9VZF_P-1" target="mHmDhstMQcEe2w9VZF_P-3">
          <mxGeometry relative="1" as="geometry">
            <Array as="points">
              <mxPoint x="355" y="140" />
              <mxPoint x="355" y="140" />
            </Array>
          </mxGeometry>
        </mxCell>
        <mxCell id="mHmDhstMQcEe2w9VZF_P-1" value="开始" style="rounded=0;whiteSpace=wrap;html=1;" vertex="1" parent="1">
          <mxGeometry x="310" y="40" width="90" height="30" as="geometry" />
        </mxCell>
        <mxCell id="mHmDhstMQcEe2w9VZF_P-2" value="输入A,b,N,eps" style="rounded=0;whiteSpace=wrap;html=1;" vertex="1" parent="1">
          <mxGeometry x="310" y="100" width="90" height="30" as="geometry" />
        </mxCell>
        <mxCell id="mHmDhstMQcEe2w9VZF_P-16" value="" style="edgeStyle=orthogonalEdgeStyle;rounded=0;orthogonalLoop=1;jettySize=auto;html=1;" edge="1" parent="1" source="mHmDhstMQcEe2w9VZF_P-3" target="mHmDhstMQcEe2w9VZF_P-5">
          <mxGeometry relative="1" as="geometry" />
        </mxCell>
        <mxCell id="mHmDhstMQcEe2w9VZF_P-3" value="1＝&amp;gt;k" style="rounded=0;whiteSpace=wrap;html=1;" vertex="1" parent="1">
          <mxGeometry x="295" y="160" width="125" height="30" as="geometry" />
        </mxCell>
        <mxCell id="mHmDhstMQcEe2w9VZF_P-20" value="" style="edgeStyle=orthogonalEdgeStyle;rounded=0;orthogonalLoop=1;jettySize=auto;html=1;entryX=0.5;entryY=0;entryDx=0;entryDy=0;" edge="1" parent="1" source="mHmDhstMQcEe2w9VZF_P-4" target="mHmDhstMQcEe2w9VZF_P-11">
          <mxGeometry relative="1" as="geometry">
            <mxPoint x="167.5" y="315" as="targetPoint" />
          </mxGeometry>
        </mxCell>
        <mxCell id="mHmDhstMQcEe2w9VZF_P-22" value="" style="edgeStyle=orthogonalEdgeStyle;rounded=0;orthogonalLoop=1;jettySize=auto;html=1;" edge="1" parent="1" source="mHmDhstMQcEe2w9VZF_P-4" target="mHmDhstMQcEe2w9VZF_P-6">
          <mxGeometry relative="1" as="geometry">
            <Array as="points">
              <mxPoint x="530" y="315" />
            </Array>
          </mxGeometry>
        </mxCell>
        <mxCell id="mHmDhstMQcEe2w9VZF_P-4" value="|P|≤eps" style="rhombus;whiteSpace=wrap;html=1;" vertex="1" parent="1">
          <mxGeometry x="302.5" y="290" width="110" height="50" as="geometry" />
        </mxCell>
        <mxCell id="mHmDhstMQcEe2w9VZF_P-17" value="" style="edgeStyle=orthogonalEdgeStyle;rounded=0;orthogonalLoop=1;jettySize=auto;html=1;" edge="1" parent="1" source="mHmDhstMQcEe2w9VZF_P-5" target="mHmDhstMQcEe2w9VZF_P-4">
          <mxGeometry relative="1" as="geometry" />
        </mxCell>
        <mxCell id="mHmDhstMQcEe2w9VZF_P-5" value="选主元" style="rounded=0;whiteSpace=wrap;html=1;" vertex="1" parent="1">
          <mxGeometry x="310" y="220" width="95" height="40" as="geometry" />
        </mxCell>
        <mxCell id="mHmDhstMQcEe2w9VZF_P-23" value="" style="edgeStyle=orthogonalEdgeStyle;rounded=0;orthogonalLoop=1;jettySize=auto;html=1;" edge="1" parent="1" source="mHmDhstMQcEe2w9VZF_P-6" target="mHmDhstMQcEe2w9VZF_P-8">
          <mxGeometry relative="1" as="geometry" />
        </mxCell>
        <mxCell id="mHmDhstMQcEe2w9VZF_P-6" value="换行" style="rounded=0;whiteSpace=wrap;html=1;" vertex="1" parent="1">
          <mxGeometry x="490" y="350" width="80" height="30" as="geometry" />
        </mxCell>
        <mxCell id="mHmDhstMQcEe2w9VZF_P-7" value="消元" style="rounded=0;whiteSpace=wrap;html=1;" vertex="1" parent="1">
          <mxGeometry x="490" y="400" width="80" height="30" as="geometry" />
        </mxCell>
        <mxCell id="mHmDhstMQcEe2w9VZF_P-24" value="" style="edgeStyle=orthogonalEdgeStyle;rounded=0;orthogonalLoop=1;jettySize=auto;html=1;" edge="1" parent="1" source="mHmDhstMQcEe2w9VZF_P-8" target="mHmDhstMQcEe2w9VZF_P-10">
          <mxGeometry relative="1" as="geometry" />
        </mxCell>
        <mxCell id="mHmDhstMQcEe2w9VZF_P-8" value="k+1=&amp;gt;k" style="rounded=0;whiteSpace=wrap;html=1;" vertex="1" parent="1">
          <mxGeometry x="490" y="460" width="80" height="40" as="geometry" />
        </mxCell>
        <mxCell id="mHmDhstMQcEe2w9VZF_P-34" value="" style="edgeStyle=orthogonalEdgeStyle;rounded=0;orthogonalLoop=1;jettySize=auto;html=1;" edge="1" parent="1" source="mHmDhstMQcEe2w9VZF_P-9">
          <mxGeometry relative="1" as="geometry">
            <mxPoint x="360" y="200" as="targetPoint" />
            <Array as="points">
              <mxPoint x="640" y="545" />
              <mxPoint x="640" y="200" />
            </Array>
          </mxGeometry>
        </mxCell>
        <mxCell id="mHmDhstMQcEe2w9VZF_P-9" value="k=n" style="rhombus;whiteSpace=wrap;html=1;" vertex="1" parent="1">
          <mxGeometry x="490" y="520" width="80" height="50" as="geometry" />
        </mxCell>
        <mxCell id="mHmDhstMQcEe2w9VZF_P-26" value="" style="edgeStyle=orthogonalEdgeStyle;rounded=0;orthogonalLoop=1;jettySize=auto;html=1;" edge="1" parent="1" source="mHmDhstMQcEe2w9VZF_P-10" target="mHmDhstMQcEe2w9VZF_P-13">
          <mxGeometry relative="1" as="geometry" />
        </mxCell>
        <mxCell id="mHmDhstMQcEe2w9VZF_P-30" value="" style="edgeStyle=orthogonalEdgeStyle;rounded=0;orthogonalLoop=1;jettySize=auto;html=1;entryX=1;entryY=0.5;entryDx=0;entryDy=0;" edge="1" parent="1" source="mHmDhstMQcEe2w9VZF_P-10" target="mHmDhstMQcEe2w9VZF_P-11">
          <mxGeometry relative="1" as="geometry">
            <mxPoint x="359" y="615" as="targetPoint" />
          </mxGeometry>
        </mxCell>
        <mxCell id="mHmDhstMQcEe2w9VZF_P-10" value="|A(n,n)|≤eps" style="rhombus;whiteSpace=wrap;html=1;" vertex="1" parent="1">
          <mxGeometry x="484.5" y="590" width="91" height="50" as="geometry" />
        </mxCell>
        <mxCell id="mHmDhstMQcEe2w9VZF_P-18" value="" style="edgeStyle=orthogonalEdgeStyle;rounded=0;orthogonalLoop=1;jettySize=auto;html=1;" edge="1" parent="1" source="mHmDhstMQcEe2w9VZF_P-11" target="mHmDhstMQcEe2w9VZF_P-12">
          <mxGeometry relative="1" as="geometry" />
        </mxCell>
        <mxCell id="mHmDhstMQcEe2w9VZF_P-11" value="输出无解信息" style="rounded=0;whiteSpace=wrap;html=1;" vertex="1" parent="1">
          <mxGeometry x="160" y="600" width="80" height="30" as="geometry" />
        </mxCell>
        <mxCell id="mHmDhstMQcEe2w9VZF_P-12" value="停止" style="rounded=0;whiteSpace=wrap;html=1;" vertex="1" parent="1">
          <mxGeometry x="157.5" y="687.5" width="85" height="25" as="geometry" />
        </mxCell>
        <mxCell id="mHmDhstMQcEe2w9VZF_P-25" value="" style="edgeStyle=orthogonalEdgeStyle;rounded=0;orthogonalLoop=1;jettySize=auto;html=1;" edge="1" parent="1" source="mHmDhstMQcEe2w9VZF_P-13" target="mHmDhstMQcEe2w9VZF_P-14">
          <mxGeometry relative="1" as="geometry" />
        </mxCell>
        <mxCell id="mHmDhstMQcEe2w9VZF_P-13" value="回代求解" style="rounded=0;whiteSpace=wrap;html=1;" vertex="1" parent="1">
          <mxGeometry x="640" y="600" width="100" height="30" as="geometry" />
        </mxCell>
        <mxCell id="mHmDhstMQcEe2w9VZF_P-28" value="" style="edgeStyle=orthogonalEdgeStyle;rounded=0;orthogonalLoop=1;jettySize=auto;html=1;entryX=1;entryY=0.5;entryDx=0;entryDy=0;" edge="1" parent="1" source="mHmDhstMQcEe2w9VZF_P-14" target="mHmDhstMQcEe2w9VZF_P-12">
          <mxGeometry relative="1" as="geometry">
            <mxPoint x="510" y="700" as="targetPoint" />
          </mxGeometry>
        </mxCell>
        <mxCell id="mHmDhstMQcEe2w9VZF_P-14" value="输出解x" style="rounded=0;whiteSpace=wrap;html=1;" vertex="1" parent="1">
          <mxGeometry x="640" y="685" width="100" height="30" as="geometry" />
        </mxCell>
        <mxCell id="mHmDhstMQcEe2w9VZF_P-21" value="T" style="text;html=1;align=center;verticalAlign=middle;resizable=0;points=[];autosize=1;strokeColor=none;fillColor=none;" vertex="1" parent="1">
          <mxGeometry x="230" y="290" width="20" height="20" as="geometry" />
        </mxCell>
        <mxCell id="mHmDhstMQcEe2w9VZF_P-31" value="F" style="text;html=1;align=center;verticalAlign=middle;resizable=0;points=[];autosize=1;strokeColor=none;fillColor=none;" vertex="1" parent="1">
          <mxGeometry x="460" y="290" width="20" height="20" as="geometry" />
        </mxCell>
        <mxCell id="mHmDhstMQcEe2w9VZF_P-32" value="F" style="text;html=1;align=center;verticalAlign=middle;resizable=0;points=[];autosize=1;strokeColor=none;fillColor=none;" vertex="1" parent="1">
          <mxGeometry x="580" y="520" width="20" height="20" as="geometry" />
        </mxCell>
      </root>
    </mxGraphModel>
  </diagram>
</mxfile>
